<svg width="26" height="26" viewBox="0 0 26 26" fill="none" xmlns="http://www.w3.org/2000/svg">
<g clip-path="url(#clip0_609_1680)">
<path d="M15.5685 17.1764C14.9553 17.7907 14.1385 18.1287 13.2706 18.1287C12.403 18.1287 11.5861 17.7907 10.973 17.1764L6.36881 12.5724C5.75469 11.9591 5.41668 11.1424 5.41668 10.2746C5.41668 9.40674 5.75469 8.59009 6.36881 7.97695C6.98195 7.36262 7.79881 7.02461 8.66664 7.02461C9.53428 7.02461 10.3511 7.36262 10.9643 7.97695L13.2706 10.2821L19.6375 3.91548C17.5574 2.14212 14.8643 1.06641 11.9166 1.06641C5.33535 1.06641 0 6.40175 0 12.9828C0 19.5641 5.33535 24.8994 11.9166 24.8994C18.4977 24.8994 23.833 19.5641 23.833 12.9828C23.833 11.7512 23.6458 10.5638 23.299 9.44582L15.5685 17.1764Z" fill="#4CAF50"/>
<path d="M13.2697 15.963C12.9924 15.963 12.715 15.8569 12.5038 15.6456L7.89981 11.0414C7.47611 10.6179 7.47611 9.93318 7.89981 9.50968C8.32331 9.08598 9.00786 9.08598 9.43156 9.50968L13.2697 13.3478L24.1496 2.46802C24.5731 2.04451 25.2577 2.04451 25.6814 2.46802C26.1049 2.89172 26.1049 3.57627 25.6814 3.99997L14.0355 15.6456C13.8245 15.8569 13.547 15.963 13.2697 15.963Z" fill="#2196F3"/>
</g>
<defs>
<clipPath id="clip0_609_1680">
<rect width="26" height="26" fill="white"/>
</clipPath>
</defs>
</svg>
