<svg width="337" height="378" viewBox="0 0 337 378" fill="none" xmlns="http://www.w3.org/2000/svg">
<path d="M140.935 275.275C140.935 275.275 137.652 308.763 176.765 309.129C215.878 309.495 211.721 275.938 211.721 275.938C211.721 275.938 174.084 267.519 140.935 275.275Z" fill="#58595B"/>
<path d="M140.934 275.276C140.934 275.276 140.691 277.776 141.131 281.414C146.467 283.749 156.773 287.034 172.107 286.73C195.201 286.272 208.463 283.088 195.755 305.665C214.346 297.157 211.72 275.939 211.72 275.939C211.72 275.939 174.083 267.52 140.934 275.276Z" fill="#453A3E"/>
<path d="M178.935 76.9288C119.063 76.3684 101.684 122.494 105.319 156.609C108.954 190.723 135.969 213.358 141.549 233.756C141.549 233.756 153.703 237.94 177.426 238.162C201.149 238.384 213.38 234.429 213.38 234.429C219.341 214.138 246.774 192.013 251.047 157.973C255.32 123.932 238.808 77.4892 178.935 76.9288Z" fill="#FFC700"/>
<path d="M206.662 151.493C203.768 150.867 200.821 151.442 198.191 153.113C196.061 151.679 193.122 150.701 189.122 151.095C184.657 151.535 181.023 153.206 178.234 155.483C175.983 153.018 173.26 151.675 170.369 151.648C167.19 151.618 163.256 153.001 159.756 155.734C157.217 152.284 153.957 151.232 151.216 151.592C147.038 152.143 142.53 156.338 142.502 164.248C142.459 176.737 152.096 220.305 155.826 236.694C156.651 236.806 157.513 236.915 158.409 237.02C154.872 221.473 144.903 176.552 144.945 164.257C144.968 157.813 148.377 154.431 151.535 154.015C153.543 153.751 155.951 154.612 157.904 157.351C156.248 158.965 154.755 160.915 153.576 163.194C151.243 167.699 151.189 172.061 153.425 175.163C154.862 177.155 157.302 177.789 159.498 176.742C164.178 174.509 164.152 167.514 162.708 162.202C162.252 160.524 161.691 159.078 161.053 157.841C164.156 155.351 167.642 154.066 170.346 154.091C172.713 154.113 174.773 155.336 176.426 157.162C172.921 160.859 171.231 165.546 171.396 169.268C171.582 173.454 173.986 176.075 177.67 176.11C179.509 176.127 181.005 175.332 181.996 173.81C182.814 172.556 183.256 170.814 183.275 168.774C183.308 165.198 182.039 160.972 179.963 157.746C179.887 157.627 179.809 157.509 179.731 157.393C182.185 155.392 185.4 153.917 189.362 153.526C192.232 153.245 194.434 153.809 196.108 154.732C193.758 156.921 191.952 159.948 191.113 163.131C189.661 168.64 191.485 173.061 195.758 174.393C198.258 175.172 200.517 174.539 202.117 172.609C204.891 169.263 205.022 162.797 202.414 157.889C201.924 156.966 201.205 155.856 200.189 154.799C201.999 153.827 204.032 153.423 206.144 153.881C207.658 154.208 208.798 155.017 209.63 156.354C213.625 162.778 209.503 179.286 206.775 190.209C206.193 192.539 205.644 194.739 205.234 196.586C203.105 206.184 197.966 227.551 195.572 237.46C196.463 237.378 197.323 237.291 198.148 237.201C200.62 226.964 205.543 206.47 207.619 197.115C208.022 195.3 208.567 193.114 209.145 190.801C212.142 178.801 216.246 162.366 211.704 155.064C210.522 153.163 208.825 151.961 206.662 151.493ZM158.446 174.537C157.318 175.076 156.153 174.768 155.407 173.734C153.729 171.406 153.852 167.974 155.745 164.317C156.688 162.495 157.866 160.905 159.172 159.556C159.614 160.508 160.012 161.598 160.351 162.843C162.144 169.438 160.686 173.468 158.446 174.537ZM180.832 168.751C180.817 170.325 180.512 171.613 179.95 172.477C179.422 173.287 178.683 173.676 177.693 173.667C174.511 173.637 173.911 170.83 173.837 169.159C173.7 166.083 175.068 162.238 177.909 159.118C179.799 162.076 180.86 165.802 180.832 168.751ZM200.257 159.035C202.579 163.406 202.121 168.776 200.236 171.05C199.283 172.199 198.021 172.539 196.485 172.061C194.163 171.337 192.152 168.774 193.476 163.754C194.228 160.9 195.91 158.128 198.135 156.219C199.13 157.165 199.811 158.196 200.257 159.035Z" fill="#58595B"/>
<path d="M251.048 157.973C255.321 123.933 238.809 77.4898 178.936 76.9295C176.297 76.9047 173.744 76.9755 171.268 77.1273C194.169 78.1807 222.062 96.3913 220.563 142.932C219.063 189.491 186.754 223.949 130.797 212.752C130.797 212.752 130.797 212.752 130.797 212.752C135.625 220.206 139.729 227.101 141.55 233.757C141.55 233.757 153.704 237.94 177.427 238.162C201.15 238.384 213.381 234.429 213.381 234.429C219.342 214.139 246.775 192.014 251.048 157.973Z" fill="#FB9F40"/>
<path d="M207.76 186.255C207.425 187.629 207.094 188.957 206.781 190.209C206.199 192.538 205.65 194.739 205.24 196.585C203.111 206.184 197.972 227.551 195.578 237.459C196.017 237.419 196.448 237.378 196.871 237.335C196.89 237.333 196.909 237.331 196.928 237.329C197.344 237.287 197.754 237.244 198.154 237.2C200.626 226.964 205.549 206.47 207.625 197.115C208.028 195.299 208.573 193.114 209.151 190.801C210.056 187.179 211.06 183.153 211.898 179.096C210.648 181.585 209.268 183.974 207.76 186.255Z" fill="#393735"/>
<path d="M155.832 236.694C156.657 236.806 157.519 236.915 158.415 237.02C157.272 231.997 155.458 223.907 153.527 214.843C152.699 214.864 151.865 214.876 151.022 214.874C152.887 223.634 154.654 231.519 155.832 236.694Z" fill="#393735"/>
<path d="M128.601 104.724C113.923 120.744 113.603 139.207 114.859 152.059C116.114 164.911 134.244 163.246 137.673 139.89C141.101 116.535 155.602 114.928 165.658 114.091C181.359 112.784 193.612 107.36 192.021 97.2922C190.096 85.1062 153.388 77.6701 128.601 104.724Z" fill="#FFE435"/>
<path d="M213.385 234.187C207.919 236.238 193.341 238.31 177.429 238.162C161.516 238.013 146.979 235.667 141.553 233.515C136.127 231.363 132.244 241.989 138.052 246.17C143.86 250.352 162.947 251.906 177.299 252.04C191.65 252.175 210.763 250.978 216.648 246.906C222.533 242.834 218.85 232.137 213.385 234.187Z" fill="#B6D3D4"/>
<path d="M213.386 234.187C212.662 234.459 211.774 234.73 210.748 234.997C212.216 239.705 207.517 248.31 176.638 248.021C149.461 247.767 139.058 243.151 135.333 241.855C135.664 243.507 136.517 245.064 138.053 246.17C143.861 250.351 162.948 251.906 177.3 252.04C191.651 252.175 210.764 250.978 216.649 246.905C222.534 242.833 218.851 232.137 213.386 234.187Z" fill="#9EB8B9"/>
<path d="M173.298 240.998C154.578 240.593 143.876 236.48 142.94 238.535C142.003 240.59 153.198 244.937 173.258 245.239C193.318 245.541 199.068 243.632 201.377 241.998C203.685 240.365 200.938 239.881 196.229 240.754C191.521 241.627 179.117 241.123 173.298 240.998Z" fill="#CFEAE6"/>
<path d="M213.252 247.943C207.787 249.993 193.208 252.066 177.296 251.917C161.383 251.768 146.846 249.423 141.42 247.271C135.994 245.119 132.111 255.744 137.919 259.926C143.727 264.108 162.814 265.662 177.166 265.796C191.517 265.931 210.631 264.734 216.516 260.662C222.401 256.589 218.717 245.893 213.252 247.943Z" fill="#B6D3D4"/>
<path d="M213.253 247.943C212.529 248.214 211.641 248.486 210.616 248.753C212.083 253.461 207.384 262.066 176.505 261.777C149.328 261.523 138.925 256.907 135.2 255.611C135.532 257.262 136.384 258.82 137.92 259.926C143.728 264.107 162.815 265.662 177.167 265.796C191.518 265.93 210.632 264.734 216.517 260.661C222.402 256.589 218.718 245.893 213.253 247.943Z" fill="#9EB8B9"/>
<path d="M173.165 254.753C154.445 254.349 143.743 250.236 142.807 252.291C141.87 254.346 153.065 258.693 173.125 258.995C193.185 259.297 198.936 257.387 201.244 255.754C203.552 254.121 200.805 253.636 196.096 254.509C191.388 255.383 178.984 254.879 173.165 254.753Z" fill="#CFEAE6"/>
<path d="M213.123 261.699C207.658 263.749 193.079 265.822 177.167 265.673C161.254 265.524 146.717 263.179 141.291 261.027C135.865 258.875 131.983 269.5 137.79 273.682C143.598 277.863 162.686 279.418 177.037 279.552C191.388 279.687 210.502 278.49 216.387 274.417C222.272 270.345 218.589 259.649 213.123 261.699Z" fill="#B6D3D4"/>
<path d="M213.124 261.699C212.4 261.97 211.512 262.242 210.487 262.509C211.954 267.216 207.255 275.822 176.376 275.533C149.199 275.279 138.796 270.663 135.071 269.367C135.403 271.018 136.255 272.576 137.791 273.682C143.599 277.863 162.687 279.418 177.038 279.552C191.389 279.686 210.503 278.489 216.388 274.417C222.273 270.345 218.589 259.649 213.124 261.699Z" fill="#9EB8B9"/>
<path d="M173.036 268.509C154.316 268.105 143.614 263.992 142.678 266.047C141.741 268.102 152.936 272.448 172.996 272.751C193.057 273.053 198.807 271.143 201.115 269.51C203.423 267.876 200.676 267.392 195.967 268.265C191.259 269.139 178.855 268.635 173.036 268.509Z" fill="#CFEAE6"/>
<path d="M173.879 290.551C159.965 289.994 148.585 286.893 149.166 291.637C149.747 296.381 155.857 304.056 170.733 305.431C185.609 306.805 182.7 300.205 178.805 298.793C174.909 297.381 175.224 297.231 181.026 295.298C186.829 293.365 185.237 291.006 173.879 290.551Z" fill="#686B73"/>
</svg>
