<svg width="103" height="144" viewBox="0 0 103 144" fill="none" xmlns="http://www.w3.org/2000/svg">
<g clip-path="url(#clip0_611_820)">
<path d="M30.0295 116.414C30.0295 116.414 28.5769 133.859 48.9254 133.751C69.2739 133.644 66.8561 116.22 66.8561 116.22C66.8561 116.22 47.2143 112.127 30.0295 116.414Z" fill="#58595B"/>
<path d="M30.0285 116.415C30.0285 116.415 29.921 117.717 30.1779 119.607C32.9714 120.781 38.3571 122.411 46.3314 122.136C58.3408 121.722 65.2156 119.965 58.7765 131.805C68.3826 127.238 66.8549 116.221 66.8549 116.221C66.8549 116.221 47.2132 112.128 30.0285 116.415Z" fill="#453A3E"/>
<path d="M48.2866 12.9491C17.1378 13.1133 8.44892 37.2393 10.5994 54.9574C12.7498 72.6755 26.9744 84.2438 30.0322 94.8124C30.0322 94.8124 36.3867 96.8959 48.7287 96.8308C61.0707 96.7658 67.4029 94.6154 67.4029 94.6154C70.3491 84.0152 84.451 72.2977 86.4146 54.5579C88.3781 36.8181 79.4355 12.785 48.2866 12.9491Z" fill="#FFC700"/>
<path d="M63.2799 51.5245C61.7702 51.2208 60.2415 51.5423 58.8861 52.4319C57.7669 51.7018 56.2311 51.2155 54.1534 51.4511C51.8337 51.714 49.9563 52.6107 48.5229 53.8166C47.3334 52.5514 45.9066 51.8735 44.4027 51.8814C42.7486 51.8901 40.7126 52.6395 38.9128 54.0875C37.5656 52.3125 35.8622 51.7897 34.4388 51.9983C32.27 52.3164 29.9567 54.5329 30.0026 58.6479C30.075 65.1447 35.4194 87.7346 37.4844 96.2315C37.9148 96.2834 38.3637 96.3336 38.8308 96.3813C36.8723 88.3208 31.3448 65.0296 31.2735 58.6337C31.236 55.2817 32.9837 53.4962 34.6232 53.2557C35.6656 53.1032 36.925 53.533 37.9615 54.943C37.1124 55.7952 36.3509 56.8209 35.7547 58.015C34.5758 60.3762 34.5806 62.6459 35.7676 64.2422C36.53 65.2675 37.804 65.579 38.9383 65.0173C41.356 63.8202 41.2893 60.1816 40.4976 57.4295C40.2475 56.5603 39.9447 55.8126 39.6035 55.1736C41.1985 53.8548 43.002 53.1597 44.4093 53.1523C45.6405 53.1458 46.7215 53.7665 47.5951 54.7037C45.7998 56.6534 44.9566 59.1042 45.0709 61.039C45.1996 63.215 46.47 64.5605 48.3866 64.5504C49.343 64.5454 50.1152 64.1203 50.6195 63.3212C51.035 62.6626 51.2517 61.7533 51.2461 60.6916C51.2364 58.8313 50.5441 56.6428 49.4396 54.9803C49.3989 54.9188 49.3575 54.8581 49.3159 54.7984C50.5776 53.7388 52.2387 52.9472 54.2965 52.7139C55.7874 52.5455 56.9373 52.8225 57.8149 53.2895C56.6089 54.4462 55.6926 56.0347 55.2804 57.6969C54.5671 60.5736 55.5493 62.8591 57.7826 63.5196C59.089 63.9058 60.2588 63.5592 61.0764 62.5433C62.4943 60.7816 62.513 57.4172 61.1191 54.8838C60.8572 54.4077 60.4745 53.8355 59.9384 53.2934C60.8722 52.7742 61.927 52.5487 63.0291 52.7705C63.8189 52.9294 64.4181 53.3416 64.8609 54.0307C66.9881 57.3417 64.9694 65.9601 63.6336 71.6631C63.3488 72.8793 63.0797 74.028 62.8806 74.9917C61.8459 80.0009 59.3355 91.1546 58.1657 96.3272C58.6285 96.2777 59.0752 96.2262 59.5036 96.1728C60.7114 90.829 63.1167 80.1311 64.1252 75.2489C64.3209 74.3015 64.5881 73.1607 64.871 71.953C66.3384 65.6879 68.3482 57.1075 65.9301 53.3438C65.3005 52.3637 64.4089 51.7516 63.2799 51.5245ZM38.3744 63.8785C37.7916 64.1673 37.1834 64.016 36.7875 63.4839C35.8968 62.286 35.9348 60.4996 36.8919 58.5827C37.3684 57.6281 37.9692 56.7918 38.6379 56.0802C38.8755 56.5718 39.0908 57.1362 39.2764 57.7808C40.2592 61.1978 39.5317 63.3055 38.3744 63.8785ZM49.9753 60.6983C49.9796 61.5173 49.8307 62.1898 49.5446 62.6431C49.2762 63.0686 48.8951 63.2768 48.3799 63.2795C46.7245 63.2882 46.3911 61.8325 46.3398 60.9639C46.2452 59.3651 46.9276 57.3541 48.3812 55.7098C49.3868 57.2341 49.9672 59.1644 49.9753 60.6983ZM60.0057 55.4964C61.2471 57.7526 61.0497 60.5496 60.0864 61.7465C59.5994 62.3516 58.9457 62.5379 58.143 62.3009C56.9293 61.9419 55.8641 60.6243 56.5141 58.0029C56.8837 56.5124 57.7377 55.0577 58.8803 54.0476C59.4052 54.5324 59.7674 55.0633 60.0057 55.4964Z" fill="#58595B"/>
<path d="M86.4149 54.557C88.3785 36.8173 79.4358 12.7841 48.287 12.9483C46.9138 12.9555 45.5866 13.0118 44.2997 13.1096C56.2201 13.4832 70.8684 22.7438 70.4426 46.965C70.0165 71.1956 53.4724 89.3656 24.2794 83.967C24.2793 83.9671 24.2795 83.967 24.2794 83.967C26.8478 87.8076 29.0347 91.3629 30.0325 94.8116C30.0325 94.8116 36.387 96.895 48.729 96.83C61.071 96.765 67.4032 94.6146 67.4032 94.6146C70.3494 84.0144 84.4513 72.2968 86.4149 54.557Z" fill="#FB9F40"/>
<path d="M64.114 69.5993C63.9503 70.3171 63.7882 71.0102 63.6351 71.6637C63.3502 72.8799 63.0811 74.0286 62.8821 74.9923C61.8474 80.0016 59.337 91.1552 58.1671 96.3278C58.395 96.3035 58.6188 96.2786 58.8386 96.2533C58.8485 96.2521 58.8583 96.2509 58.8683 96.2498C59.0846 96.2248 59.2971 96.1994 59.5051 96.1734C60.7129 90.8297 63.1182 80.1317 64.1266 75.2496C64.3224 74.3022 64.5896 73.1614 64.8725 71.9537C65.3154 70.0627 65.807 67.9609 66.2121 65.8442C65.5813 67.1482 64.8814 68.4013 64.114 69.5993Z" fill="#393735"/>
<path d="M37.4862 96.232C37.9166 96.284 38.3655 96.3341 38.8326 96.3819C38.1999 93.7778 37.1945 89.5832 36.1211 84.883C35.6905 84.9006 35.2566 84.9128 34.8185 84.9183C35.8552 89.4609 36.8342 93.5492 37.4862 96.232Z" fill="#393735"/>
<path d="M22.3149 27.7913C14.8016 36.2363 14.776 45.8427 15.5268 52.5185C16.2777 59.1944 25.6957 58.1905 27.3015 46.0152C28.9073 33.84 36.4381 32.8938 41.6628 32.3819C49.82 31.5827 56.1527 28.6678 55.2485 23.4429C54.1541 17.1186 35.003 13.5298 22.3149 27.7913Z" fill="#FFE435"/>
<path d="M67.4032 94.4897C64.5758 95.5978 57.0081 96.787 48.7296 96.8307C40.4511 96.8743 32.8714 95.7649 30.0325 94.6867C27.1936 93.6085 25.2547 99.1653 28.3076 101.296C31.3606 103.427 41.3014 104.091 48.7677 104.051C56.234 104.012 66.1673 103.244 69.1976 101.081C72.2279 98.9178 70.2306 93.3817 67.4032 94.4897Z" fill="#B6D3D4"/>
<path d="M67.4016 94.4889C67.0271 94.6356 66.5673 94.7838 66.0358 94.9305C66.8349 97.368 64.4562 101.88 48.3913 101.965C34.2525 102.039 28.8059 99.7175 26.8585 99.0716C27.0434 99.9283 27.4988 100.732 28.3061 101.295C31.359 103.426 41.2999 104.09 48.7662 104.05C56.2325 104.011 66.1658 103.243 69.1961 101.08C72.2263 98.9169 70.229 93.3808 67.4016 94.4889Z" fill="#9EB8B9"/>
<path d="M46.6007 98.3377C36.86 98.2697 31.2617 96.2118 30.7902 97.2878C30.3188 98.3638 36.1751 100.54 46.6123 100.544C57.0496 100.549 60.0261 99.5116 61.2144 98.6444C62.4026 97.7772 60.97 97.5462 58.5273 98.0362C56.0846 98.5262 49.6287 98.3588 46.6007 98.3377Z" fill="#CFEAE6"/>
<path d="M67.4422 101.646C64.6148 102.754 57.0472 103.943 48.7687 103.987C40.4902 104.031 32.9105 102.921 30.0716 101.843C27.2326 100.765 25.2938 106.322 28.3467 108.453C31.3996 110.584 41.3404 111.247 48.8068 111.208C56.2731 111.168 66.2064 110.4 69.2366 108.237C72.267 106.074 70.2696 100.538 67.4422 101.646Z" fill="#B6D3D4"/>
<path d="M67.4407 101.645C67.0662 101.792 66.6064 101.94 66.0749 102.087C66.874 104.524 64.4953 109.037 48.4304 109.121C34.2916 109.196 28.8449 106.874 26.8976 106.228C27.0824 107.085 27.5378 107.888 28.3452 108.452C31.3981 110.583 41.3389 111.246 48.8053 111.207C56.2716 111.167 66.2049 110.399 69.2351 108.236C72.2655 106.073 70.2681 100.537 67.4407 101.645Z" fill="#9EB8B9"/>
<path d="M46.6397 105.494C36.8991 105.426 31.3007 103.368 30.8293 104.444C30.3578 105.52 36.2141 107.696 46.6514 107.701C57.0886 107.705 60.0652 106.668 61.2535 105.801C62.4417 104.933 61.0091 104.702 58.5664 105.192C56.1237 105.682 49.6678 105.515 46.6397 105.494Z" fill="#CFEAE6"/>
<path d="M67.4774 108.802C64.65 109.91 57.0824 111.1 48.8038 111.143C40.5253 111.187 32.9456 110.077 30.1067 108.999C27.2678 107.921 25.3289 113.478 28.3818 115.609C31.4348 117.74 41.3756 118.403 48.8419 118.364C56.3082 118.324 66.2415 117.556 69.2718 115.393C72.3021 113.23 70.3048 107.694 67.4774 108.802Z" fill="#B6D3D4"/>
<path d="M67.4759 108.801C67.1014 108.948 66.6415 109.096 66.1101 109.243C66.9092 111.681 64.5304 116.193 48.4655 116.277C34.3267 116.352 28.8801 114.03 26.9327 113.384C27.1176 114.241 27.573 115.044 28.3803 115.608C31.4333 117.739 41.3741 118.402 48.8404 118.363C56.3068 118.324 66.24 117.556 69.2703 115.392C72.3006 113.229 70.3033 107.693 67.4759 108.801Z" fill="#9EB8B9"/>
<path d="M46.6749 112.65C36.9342 112.582 31.3359 110.524 30.8644 111.6C30.393 112.676 36.2493 114.852 46.6865 114.857C57.1238 114.861 60.1004 113.824 61.2886 112.957C62.4769 112.09 61.0443 111.859 58.6016 112.349C56.1588 112.839 49.7029 112.671 46.6749 112.65Z" fill="#CFEAE6"/>
<path d="M47.2837 124.109C40.0416 123.925 34.0986 122.399 34.4369 124.862C34.7752 127.325 38.0119 131.271 45.7605 131.873C53.5091 132.475 51.9458 129.064 49.9087 128.359C47.8717 127.654 48.0339 127.574 51.0377 126.524C54.0416 125.474 53.1951 124.26 47.2837 124.109Z" fill="#686B73"/>
</g>
<defs>
<clipPath id="clip0_611_820">
<rect width="81.2114" height="125.352" fill="white" transform="translate(0.109375 23.9473) rotate(-17.1504)"/>
</clipPath>
</defs>
</svg>
