<svg width="47" height="37" viewBox="0 0 47 37" fill="none" xmlns="http://www.w3.org/2000/svg">
<circle cx="18.9899" cy="18.3493" r="18.3493" fill="#D6DBF0"/>
<g clip-path="url(#clip0_701_964)">
<path d="M23.6106 27.6839C23.0381 27.6709 22.4919 27.4407 22.0826 27.0401L13.4981 18.3204C13.2824 18.1239 13.1089 17.8855 12.9884 17.6197C12.8679 17.3539 12.8029 17.0664 12.7973 16.7746C12.7917 16.4828 12.8457 16.193 12.9559 15.9228C13.0661 15.6526 13.2303 15.4077 13.4384 15.2031C13.6465 14.9985 13.8941 14.8385 14.1662 14.7329C14.4382 14.6273 14.7289 14.5782 15.0206 14.5888C15.3122 14.5993 15.5986 14.6692 15.8623 14.7943C16.126 14.9193 16.3614 15.0967 16.5542 15.3158L23.6214 22.4924L43.5545 2.56144C43.7525 2.35646 43.9893 2.19296 44.2511 2.08049C44.513 1.96801 44.7946 1.90881 45.0796 1.90633C45.3645 1.90385 45.6471 1.95816 45.9109 2.06606C46.1746 2.17397 46.4142 2.33333 46.6157 2.53483C46.8172 2.73634 46.9766 2.97596 47.0845 3.23971C47.1924 3.50346 47.2467 3.78606 47.2442 4.07102C47.2418 4.35598 47.1826 4.63759 47.0701 4.89943C46.9576 5.16126 46.7941 5.39807 46.5891 5.59605L25.128 27.0572C24.7252 27.459 24.1795 27.6844 23.6106 27.6839Z" fill="#396CE8"/>
<path opacity="0.4" d="M23.6066 19.0996C23.1822 19.0995 22.7674 18.9736 22.4145 18.7378C22.0617 18.502 21.7867 18.1668 21.6243 17.7747C21.4619 17.3826 21.4194 16.9512 21.5022 16.5349C21.5849 16.1187 21.7892 15.7363 22.0893 15.4362L34.966 2.55948C35.164 2.35451 35.4008 2.19101 35.6626 2.07853C35.9245 1.96606 36.2061 1.90685 36.491 1.90438C36.776 1.9019 37.0586 1.9562 37.3223 2.06411C37.5861 2.17202 37.8257 2.33138 38.0272 2.53288C38.2287 2.73439 38.3881 2.974 38.496 3.23775C38.6039 3.5015 38.6582 3.7841 38.6557 4.06906C38.6532 4.35402 38.594 4.63564 38.4816 4.89747C38.3691 5.15931 38.2056 5.39612 38.0006 5.59409L25.1239 18.4708C24.7215 18.8733 24.1757 19.0995 23.6066 19.0996Z" fill="#396CE8"/>
<path opacity="0.4" d="M15.0224 27.6846C14.7378 27.6839 14.456 27.6267 14.1937 27.5162C13.9314 27.4056 13.6937 27.244 13.4944 27.0407L4.90991 18.3275C4.54748 17.9156 4.35657 17.3805 4.3764 16.8322C4.39623 16.2839 4.6253 15.7641 5.01654 15.3794C5.40777 14.9948 5.93146 14.7746 6.48001 14.7641C7.02856 14.7536 7.5603 14.9535 7.96598 15.3229L16.5505 24.0361C16.846 24.3377 17.0461 24.7197 17.1256 25.1344C17.2051 25.5491 17.1605 25.978 16.9973 26.3675C16.8342 26.757 16.5598 27.0897 16.2086 27.3239C15.8573 27.5582 15.4447 27.6836 15.0224 27.6846Z" fill="#396CE8"/>
</g>
<defs>
<clipPath id="clip0_701_964">
<rect width="47" height="30.9041" fill="white"/>
</clipPath>
</defs>
</svg>
