<svg width="182" height="181" viewBox="0 0 182 181" fill="none" xmlns="http://www.w3.org/2000/svg">
<path d="M91 0C40.7438 0 0 40.5058 0 90.5C0 140.494 40.7438 181 91 181C141.256 181 182 140.469 182 90.5C182 40.5306 141.256 0 91 0Z" fill="#2AD352"/>
<path d="M8.45093e-05 90.5001C-0.0204578 105.459 3.70432 120.188 10.8383 133.357C19.9272 136.011 29.3518 137.355 38.8244 137.348C93.531 137.348 137.879 93.2434 137.879 38.8373C137.887 29.2675 136.494 19.7475 133.742 10.5773C120.586 3.60854 105.905 -0.02456 91.0001 0.000124954C40.7439 0.000124954 8.45093e-05 40.506 8.45093e-05 90.5001Z" fill="#74DA7F"/>
<path d="M142.899 75.5042L88.2034 132.629C86.7129 134.184 84.922 135.424 82.9381 136.274C80.9542 137.125 78.8181 137.568 76.6578 137.578H76.5867C74.4384 137.579 72.3119 137.15 70.3334 136.317C68.355 135.485 66.5649 134.265 65.0695 132.731L36.0455 103.001C34.5459 101.504 33.3601 99.7253 32.5571 97.7688C31.7541 95.8124 31.3499 93.7168 31.3678 91.6037C31.3857 89.4907 31.8254 87.4022 32.6614 85.4595C33.4975 83.5168 34.7131 81.7585 36.2379 80.2868C37.7627 78.8151 39.5662 77.6593 41.5438 76.8863C43.5214 76.1134 45.6336 75.7387 47.758 75.7842C49.8823 75.8296 51.9764 76.2942 53.9188 77.1509C55.8611 78.0077 57.613 79.2396 59.0728 80.7751L76.473 98.5994L119.659 53.4979C121.106 51.9551 122.845 50.713 124.778 49.8433C126.71 48.9735 128.797 48.4935 130.917 48.4309C133.037 48.3682 135.149 48.7243 137.13 49.4785C139.111 50.2326 140.922 51.3699 142.458 52.8245C143.994 54.2791 145.225 56.0222 146.08 57.9529C146.934 59.8836 147.395 61.9637 147.436 64.0728C147.477 66.1819 147.098 68.2781 146.319 70.2403C145.54 72.2024 144.378 73.9916 142.899 75.5042Z" fill="white"/>
</svg>
